<svg xmlns="http://www.w3.org/2000/svg" xmlns:xlink="http://www.w3.org/1999/xlink" viewBox="0,0,256,256" width="100px" height="100px" fill-rule="nonzero"><g fill="#ffffff" fill-rule="nonzero" stroke="none" stroke-width="1" stroke-linecap="butt" stroke-linejoin="miter" stroke-miterlimit="10" stroke-dasharray="" stroke-dashoffset="0" font-family="none" font-weight="none" font-size="none" text-anchor="none" style="mix-blend-mode: normal"><g transform="scale(5.12,5.12)"><path d="M7,2c-2.80078,0 -5,2.19922 -5,5v27c0,2.80078 2.19922,5 5,5h27c2.80078,0 5,-2.19922 5,-5v-24.1875l-2,2.1875v22c0,1.69922 -1.30078,3 -3,3h-27c-1.69922,0 -3,-1.30078 -3,-3v-27c0,-1.69922 1.30078,-3 3,-3h26.40625l1.6875,-1.90625c-0.39844,0 -0.69531,-0.09375 -1.09375,-0.09375zM36.25,5.34375l-17.3125,19.25l-8.28125,-7.34375l-1.3125,1.5l9,8l0.75,0.65625l0.65625,-0.75l18,-20zM41,11v2h2c1.69922,0 3,1.30078 3,3v27c0,1.69922 -1.30078,3 -3,3h-27c-1.69922,0 -3,-1.30078 -3,-3v-2h-2v2c0,2.80078 2.19922,5 5,5h27c2.80078,0 5,-2.19922 5,-5v-27c0,-2.80078 -2.19922,-5 -5,-5z"></path></g></g></svg>